{
    "asset" : {
        "generator" : "Khronos glTF Blender I/O v0.9.36",
        "version" : "2.0"
    },
    "extensionsUsed" : [
        "KHR_lights_punctual"
    ],
    "extensionsRequired" : [
        "KHR_lights_punctual"
    ],
    "extensions" : {
        "KHR_lights_punctual" : {
            "lights" : [
                {
                    "color" : [
                        1,
                        1,
                        1
                    ],
                    "intensity" : 266.00006103515625,
                    "type" : "point",
                    "name" : "Light"
                },
                {
                    "color" : [
                        1,
                        1,
                        1
                    ],
                    "intensity" : 10,
                    "spot" : {
                        "innerConeAngle" : 0.3337942263919169,
                        "outerConeAngle" : 0.39269909262657166
                    },
                    "type" : "spot",
                    "name" : "Spot"
                }
            ]
        }
    },
    "scene" : 0,
    "scenes" : [
        {
            "name" : "Scene",
            "nodes" : [
                0,
                2,
                3,
                4,
                6,
                7
            ]
        }
    ],
    "nodes" : [
        {
            "mesh" : 0,
            "name" : "Cube",
            "translation" : [
                -3.9701788425445557,
                0,
                -3.919287919998169
            ]
        },
        {
            "extensions" : {
                "KHR_lights_punctual" : {
                    "light" : 0
                }
            },
            "name" : "Light_Orientation",
            "rotation" : [
                -0.7071067690849304,
                0,
                0,
                0.7071067690849304
            ]
        },
        {
            "children" : [
                1
            ],
            "name" : "Light",
            "rotation" : [
                0.16907575726509094,
                0.7558803558349609,
                -0.27217137813568115,
                0.570947527885437
            ],
            "translation" : [
                27.37820816040039,
                4.102460861206055,
                -1.0054539442062378
            ]
        },
        {
            "name" : "Camera",
            "rotation" : [
                0.483536034822464,
                0.33687159419059753,
                -0.20870360732078552,
                0.7804827094078064
            ],
            "translation" : [
                7.358891487121582,
                4.958309173583984,
                6.925790786743164
            ]
        },
        {
            "mesh" : 1,
            "name" : "Plane",
            "scale" : [
                6.273874282836914,
                6.273874282836914,
                6.273874282836914
            ],
            "translation" : [
                0,
                -1.4200974702835083,
                0
            ]
        },
        {
            "extensions" : {
                "KHR_lights_punctual" : {
                    "light" : 1
                }
            },
            "name" : "Spot_Orientation",
            "rotation" : [
                -0.7071067690849304,
                0,
                0,
                0.7071067690849304
            ]
        },
        {
            "children" : [
                5
            ],
            "name" : "Spot",
            "rotation" : [
                -0.49929681420326233,
                0.20095309615135193,
                0.12028034776449203,
                0.8341781497001648
            ],
            "translation" : [
                -5.715540885925293,
                8.9973726272583,
                -17.644947052001953
            ]
        },
        {
            "mesh" : 2,
            "name" : "Cone",
            "translation" : [
                1.4914849996566772,
                0,
                3.9229419231414795
            ]
        }
    ],
    "materials" : [
        {
            "doubleSided" : true,
            "name" : "Material.002",
            "pbrMetallicRoughness" : {
                "baseColorTexture" : {
                    "index" : 0,
                    "texCoord" : 0
                },
                "metallicFactor" : 0,
                "roughnessFactor" : 0.5
            }
        },
        {
            "doubleSided" : true,
            "name" : "Material.003",
            "pbrMetallicRoughness" : {
                "baseColorFactor" : [
                    0.0373857319355011,
                    0.02237040549516678,
                    0.011215806007385254,
                    1
                ],
                "metallicFactor" : 0,
                "roughnessFactor" : 0.5
            }
        }
    ],
    "meshes" : [
        {
            "name" : "Cube",
            "primitives" : [
                {
                    "attributes" : {
                        "POSITION" : 0,
                        "NORMAL" : 1,
                        "TEXCOORD_0" : 2
                    },
                    "indices" : 3,
                    "material" : 0
                }
            ]
        },
        {
            "name" : "Plane",
            "primitives" : [
                {
                    "attributes" : {
                        "POSITION" : 4,
                        "NORMAL" : 5,
                        "TEXCOORD_0" : 6
                    },
                    "indices" : 7,
                    "material" : 1
                }
            ]
        },
        {
            "name" : "Cone",
            "primitives" : [
                {
                    "attributes" : {
                        "POSITION" : 8,
                        "NORMAL" : 9,
                        "TEXCOORD_0" : 10
                    },
                    "indices" : 11
                }
            ]
        }
    ],
    "textures" : [
        {
            "source" : 0
        }
    ],
    "images" : [
        {
            "bufferView" : 4,
            "mimeType" : "image/jpeg",
            "name" : "red fart"
        }
    ],
    "accessors" : [
        {
            "bufferView" : 0,
            "componentType" : 5126,
            "count" : 47,
            "max" : [
                1,
                1.2869224548339844,
                1
            ],
            "min" : [
                -1,
                -1,
                -1
            ],
            "type" : "VEC3"
        },
        {
            "bufferView" : 1,
            "componentType" : 5126,
            "count" : 47,
            "type" : "VEC3"
        },
        {
            "bufferView" : 2,
            "componentType" : 5126,
            "count" : 47,
            "type" : "VEC2"
        },
        {
            "bufferView" : 3,
            "componentType" : 5123,
            "count" : 69,
            "type" : "SCALAR"
        },
        {
            "bufferView" : 5,
            "componentType" : 5126,
            "count" : 4,
            "max" : [
                1,
                0,
                1
            ],
            "min" : [
                -1,
                0,
                -1
            ],
            "type" : "VEC3"
        },
        {
            "bufferView" : 6,
            "componentType" : 5126,
            "count" : 4,
            "type" : "VEC3"
        },
        {
            "bufferView" : 7,
            "componentType" : 5126,
            "count" : 4,
            "type" : "VEC2"
        },
        {
            "bufferView" : 8,
            "componentType" : 5123,
            "count" : 6,
            "type" : "SCALAR"
        },
        {
            "bufferView" : 9,
            "componentType" : 5126,
            "count" : 128,
            "max" : [
                1,
                1,
                1
            ],
            "min" : [
                -1,
                -1,
                -1
            ],
            "type" : "VEC3"
        },
        {
            "bufferView" : 10,
            "componentType" : 5126,
            "count" : 128,
            "type" : "VEC3"
        },
        {
            "bufferView" : 11,
            "componentType" : 5126,
            "count" : 128,
            "type" : "VEC2"
        },
        {
            "bufferView" : 12,
            "componentType" : 5123,
            "count" : 186,
            "type" : "SCALAR"
        }
    ],
    "bufferViews" : [
        {
            "buffer" : 0,
            "byteLength" : 564,
            "byteOffset" : 0
        },
        {
            "buffer" : 0,
            "byteLength" : 564,
            "byteOffset" : 564
        },
        {
            "buffer" : 0,
            "byteLength" : 376,
            "byteOffset" : 1128
        },
        {
            "buffer" : 0,
            "byteLength" : 138,
            "byteOffset" : 1504
        },
        {
            "buffer" : 0,
            "byteLength" : 389895,
            "byteOffset" : 1644
        },
        {
            "buffer" : 0,
            "byteLength" : 48,
            "byteOffset" : 391540
        },
        {
            "buffer" : 0,
            "byteLength" : 48,
            "byteOffset" : 391588
        },
        {
            "buffer" : 0,
            "byteLength" : 32,
            "byteOffset" : 391636
        },
        {
            "buffer" : 0,
            "byteLength" : 12,
            "byteOffset" : 391668
        },
        {
            "buffer" : 0,
            "byteLength" : 1536,
            "byteOffset" : 391680
        },
        {
            "buffer" : 0,
            "byteLength" : 1536,
            "byteOffset" : 393216
        },
        {
            "buffer" : 0,
            "byteLength" : 1024,
            "byteOffset" : 394752
        },
        {
            "buffer" : 0,
            "byteLength" : 372,
            "byteOffset" : 395776
        }
    ],
    "buffers" : [
        {
            "byteLength" : 396148,
            "uri" : "data:application/octet-stream;base64,"
        }
    ]
}
